<?xml version="1.0" encoding="iso-8859-1"?>
<!-- Uploaded to: SVG Repo, www.svgrepo.com, Generator: SVG Repo Mixer Tools -->
<svg height="800px" width="800px" version="1.1" id="Layer_1" xmlns="http://www.w3.org/2000/svg" xmlns:xlink="http://www.w3.org/1999/xlink" 
	 viewBox="0 0 511.999 511.999" xml:space="preserve">
<path style="fill:#836948;" d="M373.197,371.175c-1.306,0-2.629-0.325-3.849-1.009c-3.797-2.13-5.149-6.937-3.019-10.733
	c31.258-55.738,11.419-120.928,11.215-121.581c-1.299-4.152,1.009-8.576,5.16-9.881c4.147-1.303,8.572,0.995,9.881,5.146
	c0.92,2.921,22.16,72.224-12.504,134.029C378.635,369.724,375.957,371.175,373.197,371.175z"/>
<g>
	<path style="fill:#610012;" d="M373.205,274.997c-10.887,0-19.745-8.857-19.745-19.745c0-10.888,8.858-19.745,19.745-19.745
		c10.887,0,19.745,8.857,19.745,19.745C392.949,266.14,384.092,274.997,373.205,274.997z"/>
	<path style="fill:#610012;" d="M403.755,274.997c-10.887,0-19.744-8.857-19.744-19.745c0-10.888,8.857-19.745,19.744-19.745
		c10.887,0,19.745,8.857,19.745,19.745C423.501,266.14,414.643,274.997,403.755,274.997z"/>
</g>
<path style="fill:#8EC1ED;" d="M181.603,57.216c19.762,0,36.589,12.57,42.92,30.151c2.71,7.524-2.922,15.454-10.918,15.454H12.046
	c-7.996,0-13.629-7.93-10.918-15.454c6.332-17.581,23.158-30.151,42.92-30.151l2.691-0.006
	c8.282-28.685,34.734-49.662,66.086-49.662s57.803,20.978,66.086,49.662L181.603,57.216z"/>
<g>
	<path style="fill:#ACAAB1;" d="M406.676,135.182c-4.356,0-7.884-3.53-7.884-7.884c0-4.717-3.837-8.555-8.555-8.555
		s-8.555,3.837-8.555,8.555c0,4.355-3.529,7.884-7.884,7.884s-7.884-3.53-7.884-7.884c0-13.412,10.912-24.324,24.324-24.324
		c13.412,0,24.324,10.911,24.324,24.324C414.56,131.651,411.032,135.182,406.676,135.182z"/>
	<path style="fill:#ACAAB1;" d="M439.555,135.182c-4.356,0-7.884-3.53-7.884-7.884c0-4.717-3.837-8.555-8.555-8.555
		c-4.716,0-8.554,3.837-8.554,8.555c0,4.355-3.529,7.884-7.884,7.884c-4.356,0-7.884-3.53-7.884-7.884
		c0-13.412,10.911-24.324,24.323-24.324c13.412,0,24.324,10.911,24.324,24.324C447.439,131.651,443.908,135.182,439.555,135.182z"/>
	<path style="fill:#ACAAB1;" d="M75.551,197.432c-4.356,0-7.884-3.53-7.884-7.884c0-4.717-3.837-8.554-8.555-8.554
		s-8.555,3.837-8.555,8.554c0,4.355-3.529,7.884-7.884,7.884s-7.884-3.53-7.884-7.884c0-13.412,10.912-24.323,24.324-24.323
		s24.324,10.911,24.324,24.323C83.435,193.901,79.905,197.432,75.551,197.432z"/>
	<path style="fill:#ACAAB1;" d="M108.429,197.432c-4.356,0-7.884-3.53-7.884-7.884c0-4.717-3.837-8.554-8.555-8.554
		c-4.718,0-8.555,3.837-8.555,8.554c0,4.355-3.529,7.884-7.884,7.884c-4.356,0-7.884-3.53-7.884-7.884
		c0-13.412,10.912-24.323,24.324-24.323s24.324,10.911,24.324,24.323C116.313,193.901,112.784,197.432,108.429,197.432z"/>
	<polygon style="fill:#ACAAB1;" points="327.901,363.288 285.616,146 233.054,146 233.054,361.702 	"/>
</g>
<g>
	<path style="fill:#B6E892;" d="M364.411,249.939c-3.077,0-6.233-0.449-9.347-1.554c-15.732-5.581-21.801-24.874-22.441-27.056
		c-0.959-3.266,0.287-6.779,3.089-8.711c1.871-1.289,18.746-12.448,34.474-6.865h0.001c15.733,5.581,21.802,24.874,22.442,27.056
		c0.959,3.266-0.287,6.779-3.089,8.711C388.039,242.556,376.884,249.939,364.411,249.939z M350.165,222.65
		c2.206,4.293,5.704,9.289,10.172,10.874c4.466,1.584,10.329-0.088,14.752-2.035c-2.206-4.293-5.704-9.289-10.173-10.874h0.001
		C360.45,219.032,354.588,220.705,350.165,222.65z"/>
	<path style="fill:#B6E892;" d="M403.682,248.357c-11.074,0-20.946-5.159-22.397-5.95c-2.988-1.631-4.589-4.996-3.974-8.344
		c0.411-2.236,4.45-22.053,19.52-29.232l0,0c15.07-7.179,33.006,2.172,35,3.262c2.988,1.631,4.589,4.996,3.974,8.344
		c-0.411,2.236-4.45,22.053-19.52,29.232C412.171,247.631,407.841,248.357,403.682,248.357z M394.595,230.929
		c4.599,1.48,10.621,2.546,14.909,0.504c4.332-2.063,7.288-7.377,9.018-11.861c-4.599-1.48-10.621-2.548-14.909-0.505
		C399.283,221.13,396.327,226.443,394.595,230.929z"/>
	<path style="fill:#B6E892;" d="M385.011,230.705c-1.35,0-2.707-0.346-3.934-1.052c-1.97-1.135-19.296-11.567-21.023-28.172l0,0
		c-1.728-16.605,13.081-30.38,14.777-31.896c2.536-2.27,6.244-2.655,9.194-0.957c1.97,1.135,19.297,11.567,21.024,28.173
		c1.726,16.605-13.083,30.38-14.778,31.896C388.789,230.021,386.907,230.705,385.011,230.705z M375.737,199.849
		c0.496,4.772,4.515,9.333,8.164,12.464c2.932-3.838,5.951-9.158,5.461-13.882c-0.497-4.78-4.532-9.351-8.185-12.482
		C378.228,189.782,375.241,195.064,375.737,199.849L375.737,199.849z"/>
</g>
<polygon style="fill:#D7D5D9;" points="83.948,358.67 98.464,276.277 136.827,276.277 160.271,328.076 181.411,177.537 233.054,146 
	233.054,366.824 83.948,366.824 "/>
<path style="fill:#ACD4F3;" d="M379.21,504.452h57.633c12.564,0,22.842-10.28,22.842-22.842l0,0
	c0-12.564-10.28-22.842-22.842-22.842h-18.397l-20.056,0.002h-21.532c-14.704,0-26.735-12.03-26.735-26.735l0,0
	c0-14.704,12.03-26.735,26.735-26.735h21.532h20.056h70.712c12.564,0,22.842-10.28,22.842-22.842l0,0
	c0-12.564-10.28-22.842-22.842-22.842H379.21H132.79H22.842C10.28,359.614,0,369.893,0,382.456l0,0
	c0,12.564,10.28,22.842,22.842,22.842h70.712h10.012h21.531c14.704,0,26.734,12.029,26.734,26.734l0,0
	c0,14.704-12.03,26.734-26.734,26.734h-21.531H93.554H75.158c-12.564,0-22.842,10.28-22.842,22.842l0,0
	c0,12.564,10.28,22.842,22.842,22.842h57.633H379.21V504.452z"/>
<g>
	<path style="fill:#3C66B1;" d="M304.934,409.549H189.169c-4.356,0-7.884-3.53-7.884-7.884c0-4.355,3.529-7.884,7.884-7.884h115.767
		c4.356,0,7.884,3.53,7.884,7.884S309.29,409.549,304.934,409.549z"/>
	<path style="fill:#3C66B1;" d="M282.225,439.918H220.25c-4.356,0-7.884-3.53-7.884-7.884c0-4.355,3.529-7.884,7.884-7.884h61.975
		c4.356,0,7.884,3.53,7.884,7.884S286.581,439.918,282.225,439.918z"/>
	<path style="fill:#3C66B1;" d="M310.241,469.47H184.89c-4.356,0-7.884-3.53-7.884-7.884c0-4.355,3.529-7.884,7.884-7.884h125.35
		c4.356,0,7.884,3.53,7.884,7.884C318.125,465.94,314.594,469.47,310.241,469.47z"/>
</g>
<g>
	<path style="fill:#B6E892;" d="M367.552,213.184c12.392,4.397,17.512,21.845,17.512,21.845s-14.971,10.323-27.363,5.926
		c-12.392-4.397-17.513-21.845-17.513-21.845S355.16,208.788,367.552,213.184z"/>
	<path style="fill:#B6E892;" d="M400.224,211.95c11.871-5.655,27.83,3.063,27.83,3.063s-3.287,17.885-15.159,23.538
		c-11.871,5.655-27.83-3.063-27.83-3.063S388.353,217.603,400.224,211.95z"/>
	<path style="fill:#B6E892;" d="M367.896,200.665c-1.361-13.079,12.192-25.204,12.192-25.204s15.756,9.077,17.117,22.156
		c1.361,13.079-12.192,25.204-12.192,25.204S369.256,213.743,367.896,200.665z"/>
</g>
</svg>